<?xml version="1.0" encoding="UTF-8"?>
<svg version="1.1" xmlns="http://www.w3.org/2000/svg" width="110" height="110">
<path d="M0 0 C1.44898682 0.01244751 1.44898682 0.01244751 2.92724609 0.02514648 C10.26187137 0.19860463 16.49121994 1.14496306 23.125 4.4375 C24.64287109 5.18386719 24.64287109 5.18386719 26.19140625 5.9453125 C39.8454622 13.29355288 48.9445051 24.52099377 53.82421875 39.19921875 C55.34874024 44.59371866 55.62470657 49.72958274 55.5625 55.3125 C55.55420166 56.27849121 55.54590332 57.24448242 55.53735352 58.23974609 C55.36389537 65.57437137 54.41753694 71.80371994 51.125 78.4375 C50.62742187 79.44941406 50.12984375 80.46132812 49.6171875 81.50390625 C42.26894712 95.1579622 31.04150623 104.2570051 16.36328125 109.13671875 C10.96878134 110.66124024 5.83291726 110.93720657 0.25 110.875 C-1.19898682 110.86255249 -1.19898682 110.86255249 -2.67724609 110.84985352 C-10.01187137 110.67639537 -16.24121994 109.73003694 -22.875 106.4375 C-23.88691406 105.93992187 -24.89882813 105.44234375 -25.94140625 104.9296875 C-39.5954622 97.58144712 -48.6945051 86.35400623 -53.57421875 71.67578125 C-55.09874024 66.28128134 -55.37470657 61.14541726 -55.3125 55.5625 C-55.30420166 54.59650879 -55.29590332 53.63051758 -55.28735352 52.63525391 C-55.11389537 45.30062863 -54.16753694 39.07128006 -50.875 32.4375 C-50.12863281 30.91962891 -50.12863281 30.91962891 -49.3671875 29.37109375 C-42.01894712 15.7170378 -30.79150623 6.6179949 -16.11328125 1.73828125 C-10.71878134 0.21375976 -5.58291726 -0.06220657 0 0 Z " fill="#FEFEFE" transform="translate(54.875,-0.4375)"/>
<path d="M0 0 C7.21275125 4.48765633 11.31581548 11.0258168 14 19 C15.50458542 28.05066001 13.47190952 36.60334488 8.52734375 44.2890625 C3.0159264 51.2467383 -4.82182966 55.2649466 -13.59375 56.30859375 C-22.90046662 56.72139166 -29.96728867 54.16218829 -37.16796875 48.20703125 C-43.3555526 41.80835712 -46.10758956 33.8584775 -46.625 25.0625 C-46.28881653 16.43379102 -42.45350374 8.88929008 -36.1875 3 C-24.99851979 -5.65083725 -12.65047937 -6.52990846 0 0 Z " fill="#27324D" transform="translate(71,29)"/>
<path d="M0 0 C7.21275125 4.48765633 11.31581548 11.0258168 14 19 C15.50458542 28.05066001 13.47190952 36.60334488 8.52734375 44.2890625 C3.0159264 51.2467383 -4.82182966 55.2649466 -13.59375 56.30859375 C-22.90046662 56.72139166 -29.96728867 54.16218829 -37.16796875 48.20703125 C-43.3555526 41.80835712 -46.10758956 33.8584775 -46.625 25.0625 C-46.28881653 16.43379102 -42.45350374 8.88929008 -36.1875 3 C-24.99851979 -5.65083725 -12.65047937 -6.52990846 0 0 Z M-35 11 C-37.59294033 14.45725378 -38.36966019 16.6872978 -38 21 C-36.68 21.33 -35.36 21.66 -34 22 C-33.67 23.98 -33.34 25.96 -33 28 C-33.9590625 28.2165625 -33.9590625 28.2165625 -34.9375 28.4375 C-36.97545146 28.81007181 -36.97545146 28.81007181 -38 30 C-37.75990052 36.00248694 -35.97483359 39.68324524 -32 44 C-28.72967819 46.71367129 -26.92782812 47.91246905 -22.6875 48.3125 C-20.08473412 48.2916351 -20.08473412 48.2916351 -19 47 C-18.92851801 45.64756083 -18.91600546 44.29165633 -18.9375 42.9375 C-18.958125 41.638125 -18.97875 40.33875 -19 39 C-17.02 39 -15.04 39 -13 39 C-13.03255208 41.05078125 -13.06510417 43.1015625 -13.09765625 45.15234375 C-13.20561184 47.01732141 -13.20561184 47.01732141 -12 48 C-6.05217511 47.762087 -2.21058999 46.06467846 2 42 C4.89223407 38.274122 6.58306399 34.81027795 6 30 C3.525 29.01 3.525 29.01 1 28 C1.33 26.02 1.66 24.04 2 22 C3.32 21.67 4.64 21.34 6 21 C5.71648695 16.27478247 5.01417555 12.94344247 1.69140625 9.421875 C-4.96448633 3.82662119 -11.48189298 2.27148891 -20.08203125 2.64453125 C-26.40696726 3.41503885 -30.43508095 6.73940889 -35 11 Z " fill="#DADEE2" transform="translate(71,29)"/>
<path d="M0 0 C7.21275125 4.48765633 11.31581548 11.0258168 14 19 C15.50458542 28.05066001 13.47190952 36.60334488 8.52734375 44.2890625 C3.0159264 51.2467383 -4.82182966 55.2649466 -13.59375 56.30859375 C-22.90046662 56.72139166 -29.96728867 54.16218829 -37.16796875 48.20703125 C-43.3555526 41.80835712 -46.10758956 33.8584775 -46.625 25.0625 C-46.28881653 16.43379102 -42.45350374 8.88929008 -36.1875 3 C-24.99851979 -5.65083725 -12.65047937 -6.52990846 0 0 Z M-39 10 C-43.25846855 16.79299943 -44.04038247 24.14405073 -43 32 C-40.72295278 40.23830568 -35.81636659 46.66804235 -28.4375 50.9375 C-20.80045884 54.40575027 -12.58093702 54.18152058 -4.6875 51.5625 C1.94925584 48.50353925 6.98027701 42.87934536 10 36.25 C12.24480865 28.83622405 12.19471844 20.70518682 9 13.625 C5.1931083 7.02996227 -0.38406703 1.76312049 -7.734375 -0.56640625 C-20.59618412 -3.02789041 -30.43551809 0.12308275 -39 10 Z " fill="#323D56" transform="translate(71,29)"/>
<path d="M0 0 C0 1.98 0 3.96 0 6 C-0.94875 6.165 -1.8975 6.33 -2.875 6.5 C-6.08126412 7.62222102 -6.08126412 7.62222102 -6.84375 9.9140625 C-7.32618625 11.92184864 -7.67119562 13.96141284 -8 16 C-11.96 16 -15.92 16 -20 16 C-20.99 13.03 -21.98 10.06 -23 7 C-24.65 6.67 -26.3 6.34 -28 6 C-28 4.02 -28 2.04 -28 0 C-19.2557519 -3.33114213 -8.7442481 -3.33114213 0 0 Z " fill="#E8E8EA" transform="translate(69,49)"/>
<path d="M0 0 C4.55923999 2.81004667 7.41461816 6.51898477 10.25 11 C8.25 12 8.25 12 5.34375 11.078125 C0.21246748 9.50049466 -4.92624809 9.7091005 -10.25 9.75 C-11.76013672 9.73839844 -11.76013672 9.73839844 -13.30078125 9.7265625 C-18.84347516 9.74109119 -23.51622337 10.14759591 -28.75 12 C-28.25919432 7.74635076 -25.78732353 4.82576865 -22.75 2 C-15.73175719 -3.08432701 -7.79197133 -3.86324629 0 0 Z " fill="#F3F3F5" transform="translate(64.75,36)"/>
<path d="M0 0 C0.33 0 0.66 0 1 0 C1.31922728 4.68200014 0.74333831 6.34221559 -2 10 C-2.25086724 13.16732421 -2.25086724 13.16732421 -2 16 C3.05984496 14.26519601 6.60449274 11.87671666 9.8125 7.5625 C11.0950682 4.79485283 11.25814896 3.01173788 11 0 C11.99 0.33 12.98 0.66 14 1 C13.63881427 6.89936693 12.14181777 10.70950159 8 15 C4.92359067 17.3880803 2.05790691 18.88501012 -1.875 19.3125 C-4 19 -4 19 -5 18 C-5.14115161 15.32941149 -5.04247107 12.67567762 -5 10 C-6.98 10 -8.96 10 -11 10 C-10.979375 11.299375 -10.95875 12.59875 -10.9375 13.9375 C-10.91600546 15.29165633 -10.92851801 16.64756083 -11 18 C-12 19 -12 19 -15.0625 19.0625 C-16.031875 19.041875 -17.00125 19.02125 -18 19 C-18 18.01 -18 17.02 -18 16 C-16.68 16 -15.36 16 -14 16 C-13.83318891 13.08347826 -13.83318891 13.08347826 -14 10 C-14.66 9.34 -15.32 8.68 -16 8 C-16 7.01 -16 6.02 -16 5 C-15.34 5 -14.68 5 -14 5 C-14 5.66 -14 6.32 -14 7 C-10.04 7 -6.08 7 -2 7 C-1.855625 6.030625 -1.71125 5.06125 -1.5625 4.0625 C-1 1 -1 1 0 0 Z " fill="#24304B" transform="translate(63,58)"/>
<path d="M0 0 C1.76923828 0.01353516 1.76923828 0.01353516 3.57421875 0.02734375 C4.47785156 0.03894531 5.38148437 0.05054688 6.3125 0.0625 C6.3125 0.7225 6.3125 1.3825 6.3125 2.0625 C4.3325 2.7225 2.3525 3.3825 0.3125 4.0625 C0.26995644 6.06204746 0.27169217 8.06291636 0.3125 10.0625 C1.40951184 11.37901338 1.40951184 11.37901338 4.125 11.25 C7.17948544 11.07032439 8.75045344 10.63914404 11.3125 9.0625 C10.9825 11.7025 10.6525 14.3425 10.3125 17.0625 C6.3525 17.0625 2.3925 17.0625 -1.6875 17.0625 C-2.6775 14.0925 -3.6675 11.1225 -4.6875 8.0625 C-6.3375 7.7325 -7.9875 7.4025 -9.6875 7.0625 C-9.6875 5.0825 -9.6875 3.1025 -9.6875 1.0625 C-6.26517028 -0.07827657 -3.60076783 -0.03565117 0 0 Z " fill="#F2F0F1" transform="translate(50.6875,47.9375)"/>
<path d="M0 0 C3.3 0.66 6.6 1.32 10 2 C8.35042906 8.59828378 5.03825029 12.3151273 -0.31640625 16.21484375 C-2 17 -2 17 -5 16 C-5.31490911 11.38133302 -4.8791071 9.54351644 -2 6 C-1.27648573 4.01985568 -0.59734611 2.02178685 0 0 Z " fill="#F1F2F4" transform="translate(65,58)"/>
<path d="M0 0 C0.27714844 0.63808594 0.55429687 1.27617188 0.83984375 1.93359375 C1.20207031 2.75988281 1.56429687 3.58617187 1.9375 4.4375 C2.29714844 5.26121094 2.65679687 6.08492188 3.02734375 6.93359375 C3.83122323 8.94410117 3.83122323 8.94410117 5 10 C5.04080783 11.99958364 5.04254356 14.00045254 5 16 C4.01 16.33 3.02 16.66 2 17 C-2.61961316 14.52254617 -7.0892287 10.96800538 -9 6 C-8.6875 3.1875 -8.6875 3.1875 -8 1 C-5.10765685 0.17361624 -3.11257569 0 0 0 Z " fill="#F2F3F4" transform="translate(45,58)"/>
<path d="M0 0 C0.66 0 1.32 0 2 0 C2.65748789 8.71171454 0.36974128 16.49033598 -5.125 23.375 C-10.22215409 28.73636942 -17.64840519 32.7558579 -25.140625 33.09765625 C-25.83671875 33.08605469 -26.5328125 33.07445312 -27.25 33.0625 C-29.10625 33.0315625 -29.10625 33.0315625 -31 33 C-31 32.34 -31 31.68 -31 31 C-30.154375 30.84144531 -29.30875 30.68289062 -28.4375 30.51953125 C-18.29593119 28.43359494 -11.27735049 25.8603825 -5.25 17.1796875 C-2.19326401 11.84950412 -0.77756703 6.0650228 0 0 Z " fill="#29344F" transform="translate(83,52)"/>
<path d="M0 0 C0 0.66 0 1.32 0 2 C-1.051875 2.31130859 -1.051875 2.31130859 -2.125 2.62890625 C-9.84401651 5.13548906 -16.43890946 8.10116983 -20.34375 15.5703125 C-21.34598836 18.02579647 -22.21630551 20.46738277 -23 23 C-23.33 23.99 -23.66 24.98 -24 26 C-24.66 26 -25.32 26 -26 26 C-26.91230008 19.0056994 -24.14712628 14.52342534 -20 9 C-14.28852549 2.89242771 -8.55630429 -0.51337826 0 0 Z " fill="#2B3650" transform="translate(52,26)"/>
<path d="M0 0 C3 0.25 3 0.25 5 2.25 C5.25 5.25 5.25 5.25 5 8.25 C3 10.25 3 10.25 0 10.5 C-3 10.25 -3 10.25 -5 8.25 C-5.25 5.25 -5.25 5.25 -5 2.25 C-3 0.25 -3 0.25 0 0 Z " fill="#B81613" transform="translate(55,49.75)"/>
<path d="M0 0 C1.12148438 -0.01417969 2.24296875 -0.02835938 3.3984375 -0.04296875 C6.57384842 0.18384632 8.76734718 0.83359332 11.625 2.1875 C11.625 2.8475 11.625 3.5075 11.625 4.1875 C10.84125 4.0225 10.0575 3.8575 9.25 3.6875 C-0.53774173 2.33746666 -6.75310795 3.25217557 -14.875 8.9375 C-15.6175 9.55625 -15.6175 9.55625 -16.375 10.1875 C-14.8161666 6.36127257 -12.42066418 3.93602621 -9.375 1.1875 C-6.0588381 0.0821127 -3.48963365 0.01996358 0 0 Z " fill="#1D2945" transform="translate(54.375,31.8125)"/>
<path d="M0 0 C0.66 0.33 1.32 0.66 2 1 C1.34 1.66 0.68 2.32 0 3 C-0.71927295 5.31765729 -1.3909893 7.65095874 -2 10 C-0.02 9.67 1.96 9.34 4 9 C4.33 9.99 4.66 10.98 5 12 C3.68 11.67 2.36 11.34 1 11 C0.67 13.97 0.34 16.94 0 20 C-0.33 20 -0.66 20 -1 20 C-1.33 18.02 -1.66 16.04 -2 14 C-3.32 13.67 -4.64 13.34 -6 13 C-5.63118644 6.85310727 -4.09949571 4.30972626 0 0 Z " fill="#39435C" transform="translate(39,37)"/>
<path d="M0 0 C0.33 0 0.66 0 1 0 C1 2.31 1 4.62 1 7 C1.66 7 2.32 7 3 7 C3 7.99 3 8.98 3 10 C-1.455 9.01 -1.455 9.01 -6 8 C-6.33 8.66 -6.66 9.32 -7 10 C-7.66 9.67 -8.32 9.34 -9 9 C-8.375 7.125 -8.375 7.125 -7 5 C-5.00827818 4.30899447 -3.00838196 3.64097297 -1 3 C-0.67 2.01 -0.34 1.02 0 0 Z " fill="#343F58" transform="translate(71,50)"/>
<path d="M0 0 C3.99875179 2.27201806 6.38305109 5.65825437 8.75 9.5625 C8.75 10.2225 8.75 10.8825 8.75 11.5625 C7.76 11.5625 6.77 11.5625 5.75 11.5625 C4.28515625 9.91796875 4.28515625 9.91796875 2.8125 7.75 C0.74015814 4.71609151 -1.20996144 2.64390869 -4.25 0.5625 C-2.25 -0.4375 -2.25 -0.4375 0 0 Z " fill="#2E3953" transform="translate(68.25,35.4375)"/>
<path d="M0 0 C-1.26084994 2.52169988 -2.28781173 2.77117833 -4.8125 3.9375 C-7.81046284 5.37458452 -10.43119701 6.85933085 -13 9 C-11.4411666 5.17377257 -9.04566418 2.74852621 -6 0 C-3 -1 -3 -1 0 0 Z " fill="#28344E" transform="translate(51,33)"/>
<path d="M0 0 C2.64 0 5.28 0 8 0 C7.67 1.32 7.34 2.64 7 4 C5.35 3.67 3.7 3.34 2 3 C1.67 4.32 1.34 5.64 1 7 C0.67 7 0.34 7 0 7 C0 4.69 0 2.38 0 0 Z " fill="#222D49" transform="translate(69,47)"/>
<path d="M0 0 C2.375 -0.125 2.375 -0.125 5 0 C7.5654594 2.5654594 7.54046087 4.47686668 8 8 C7.01 8.33 6.02 8.66 5 9 C4.67 7.02 4.34 5.04 4 3 C3.01 3 2.02 3 1 3 C0.67 2.01 0.34 1.02 0 0 Z " fill="#313C56" transform="translate(41,55)"/>
<path d="M0 0 C0.33 0 0.66 0 1 0 C1.19401633 1.81181405 1.38004375 3.62448532 1.5625 5.4375 C1.66691406 6.44683594 1.77132812 7.45617188 1.87890625 8.49609375 C1.93884766 9.73552734 1.93884766 9.73552734 2 11 C1 12 1 12 -1.5625 12.0625 C-2.366875 12.041875 -3.17125 12.02125 -4 12 C-3.67 11.34 -3.34 10.68 -3 10 C-2.34 10 -1.68 10 -1 10 C-1.01160156 9.36191406 -1.02320313 8.72382812 -1.03515625 8.06640625 C-1.04869141 6.82697266 -1.04869141 6.82697266 -1.0625 5.5625 C-1.07410156 4.73878906 -1.08570313 3.91507813 -1.09765625 3.06640625 C-1 1 -1 1 0 0 Z " fill="#1B2743" transform="translate(40,47)"/>
<path d="M0 0 C0.66 0.33 1.32 0.66 2 1 C1.34 1.66 0.68 2.32 0 3 C-0.70710678 4.64991582 -1.37943989 6.31562256 -2 8 C-2.99 8 -3.98 8 -5 8 C-3.8141763 4.62496331 -2.72426311 2.35277269 0 0 Z " fill="#323D56" transform="translate(39,37)"/>
<path d="M0 0 C2.31 0.33 4.62 0.66 7 1 C6.01 1.495 6.01 1.495 5 2 C5 2.66 5 3.32 5 4 C2.69 3.67 0.38 3.34 -2 3 C-1.34 2.67 -0.68 2.34 0 2 C0 1.34 0 0.68 0 0 Z " fill="#38435C" transform="translate(64,45)"/>
<path d="M0 0 C0.99 0.33 1.98 0.66 3 1 C2.67 3.31 2.34 5.62 2 8 C1.34 7.67 0.68 7.34 0 7 C0 4.69 0 2.38 0 0 Z " fill="#1C2744" transform="translate(74,58)"/>
</svg>
